<svg xmlns="http://www.w3.org/2000/svg" width="240" height="220" viewBox="0 0 240 220">
  <g id="_logo" transform="translate(-121 199)">
    <rect id="Rectangle_2" data-name="Rectangle 2" width="88" height="5" transform="translate(121 16)" fill="#277da1"/>
    <rect id="Rectangle_49" data-name="Rectangle 49" width="89" height="5" transform="translate(272 16)" fill="#277da1"/>
    <rect id="Rectangle_5" data-name="Rectangle 5" width="80" height="5" transform="translate(162 -102) rotate(90)" fill="#277da1"/>
    <rect id="Rectangle_18" data-name="Rectangle 18" width="59" height="5" transform="translate(198 -177) rotate(90)" fill="#277da1"/>
    <rect id="Rectangle_36" data-name="Rectangle 36" width="60" height="6" transform="translate(235 -71) rotate(90)" fill="#277da1"/>
    <rect id="Rectangle_19" data-name="Rectangle 19" width="48.706" height="5.412" transform="translate(193.227 -177.4) rotate(-26)" fill="#277da1"/>
    <rect id="Rectangle_35" data-name="Rectangle 35" width="48.706" height="5.412" transform="translate(229.305 -70.969) rotate(-26)" fill="#277da1"/>
    <rect id="Rectangle_4" data-name="Rectangle 4" width="52" height="5" transform="translate(157 -107)" fill="#277da1"/>
    <rect id="Rectangle_3" data-name="Rectangle 3" width="124" height="5" transform="translate(209 -107) rotate(90)" fill="#277da1"/>
    <rect id="Rectangle_20" data-name="Rectangle 20" width="124" height="6" transform="translate(242 -199) rotate(90)" fill="#277da1"/>
    <rect id="Rectangle_34" data-name="Rectangle 34" width="114" height="6" transform="translate(278 -93) rotate(90)" fill="#277da1"/>
    <g id="Rectangle_6" data-name="Rectangle 6" transform="translate(170 -96)" fill="#277da1" stroke="#277da1" stroke-width="1">
      <rect width="5" height="5" stroke="none"/>
      <rect x="0.5" y="0.5" width="4" height="4" fill="none"/>
    </g>
    <g id="Rectangle_42" data-name="Rectangle 42" transform="translate(240 -66)" fill="#277da1" stroke="#277da1" stroke-width="1">
      <rect width="5" height="6" stroke="none"/>
      <rect x="0.5" y="0.5" width="4" height="5" fill="none"/>
    </g>
    <g id="Rectangle_21" data-name="Rectangle 21" transform="translate(204 -172)" fill="#277da1" stroke="#277da1" stroke-width="1">
      <rect width="5" height="5" stroke="none"/>
      <rect x="0.5" y="0.5" width="4" height="4" fill="none"/>
    </g>
    <g id="Rectangle_9" data-name="Rectangle 9" transform="translate(170 -85)" fill="#277da1" stroke="#277da1" stroke-width="1">
      <rect width="5" height="5" stroke="none"/>
      <rect x="0.5" y="0.5" width="4" height="4" fill="none"/>
    </g>
    <g id="Rectangle_43" data-name="Rectangle 43" transform="translate(240 -55)" fill="#277da1" stroke="#277da1" stroke-width="1">
      <rect width="5" height="6" stroke="none"/>
      <rect x="0.5" y="0.5" width="4" height="5" fill="none"/>
    </g>
    <g id="Rectangle_22" data-name="Rectangle 22" transform="translate(204 -161)" fill="#277da1" stroke="#277da1" stroke-width="1">
      <rect width="5" height="5" stroke="none"/>
      <rect x="0.5" y="0.5" width="4" height="4" fill="none"/>
    </g>
    <g id="Rectangle_28" data-name="Rectangle 28" transform="translate(215 -161)" fill="#277da1" stroke="#277da1" stroke-width="1">
      <rect width="5" height="5" stroke="none"/>
      <rect x="0.5" y="0.5" width="4" height="4" fill="none"/>
    </g>
    <g id="Rectangle_12" data-name="Rectangle 12" transform="translate(170 -75)" fill="#277da1" stroke="#277da1" stroke-width="1">
      <rect width="5" height="6" stroke="none"/>
      <rect x="0.5" y="0.5" width="4" height="5" fill="none"/>
    </g>
    <g id="Rectangle_46" data-name="Rectangle 46" transform="translate(240 -44)" fill="#277da1" stroke="#277da1" stroke-width="1">
      <rect width="5" height="6" stroke="none"/>
      <rect x="0.5" y="0.5" width="4" height="5" fill="none"/>
    </g>
    <g id="Rectangle_26" data-name="Rectangle 26" transform="translate(204 -150)" fill="#277da1" stroke="#277da1" stroke-width="1">
      <rect width="5" height="5" stroke="none"/>
      <rect x="0.5" y="0.5" width="4" height="4" fill="none"/>
    </g>
    <g id="Rectangle_32" data-name="Rectangle 32" transform="translate(204 -139)" fill="#277da1" stroke="#277da1" stroke-width="1">
      <rect width="5" height="5" stroke="none"/>
      <rect x="0.5" y="0.5" width="4" height="4" fill="none"/>
    </g>
    <g id="Rectangle_29" data-name="Rectangle 29" transform="translate(215 -150)" fill="#277da1" stroke="#277da1" stroke-width="1">
      <rect width="5" height="5" stroke="none"/>
      <rect x="0.5" y="0.5" width="4" height="4" fill="none"/>
    </g>
    <g id="Rectangle_31" data-name="Rectangle 31" transform="translate(215 -139)" fill="#277da1" stroke="#277da1" stroke-width="1">
      <rect width="5" height="5" stroke="none"/>
      <rect x="0.5" y="0.5" width="4" height="4" fill="none"/>
    </g>
    <g id="Rectangle_30" data-name="Rectangle 30" transform="translate(225 -150)" fill="#277da1" stroke="#277da1" stroke-width="1">
      <rect width="6" height="5" stroke="none"/>
      <rect x="0.5" y="0.5" width="5" height="4" fill="none"/>
    </g>
    <g id="Rectangle_33" data-name="Rectangle 33" transform="translate(225 -139)" fill="#277da1" stroke="#277da1" stroke-width="1">
      <rect width="6" height="5" stroke="none"/>
      <rect x="0.5" y="0.5" width="5" height="4" fill="none"/>
    </g>
    <g id="Rectangle_15" data-name="Rectangle 15" transform="translate(170 -64)" fill="#277da1" stroke="#277da1" stroke-width="1">
      <rect width="5" height="6" stroke="none"/>
      <rect x="0.5" y="0.5" width="4" height="5" fill="none"/>
    </g>
    <g id="Rectangle_37" data-name="Rectangle 37" transform="translate(240 -33)" fill="#277da1" stroke="#277da1" stroke-width="1">
      <rect width="5" height="5" stroke="none"/>
      <rect x="0.5" y="0.5" width="4" height="4" fill="none"/>
    </g>
    <g id="Rectangle_7" data-name="Rectangle 7" transform="translate(180 -96)" fill="#277da1" stroke="#277da1" stroke-width="1">
      <rect width="6" height="5" stroke="none"/>
      <rect x="0.5" y="0.5" width="5" height="4" fill="none"/>
    </g>
    <g id="Rectangle_41" data-name="Rectangle 41" transform="translate(251 -66)" fill="#277da1" stroke="#277da1" stroke-width="1">
      <rect width="5" height="6" stroke="none"/>
      <rect x="0.5" y="0.5" width="4" height="5" fill="none"/>
    </g>
    <g id="Rectangle_23" data-name="Rectangle 23" transform="translate(215 -172)" fill="#277da1" stroke="#277da1" stroke-width="1">
      <rect width="5" height="5" stroke="none"/>
      <rect x="0.5" y="0.5" width="4" height="4" fill="none"/>
    </g>
    <g id="Rectangle_10" data-name="Rectangle 10" transform="translate(180 -85)" fill="#277da1" stroke="#277da1" stroke-width="1">
      <rect width="6" height="5" stroke="none"/>
      <rect x="0.5" y="0.5" width="5" height="4" fill="none"/>
    </g>
    <g id="Rectangle_44" data-name="Rectangle 44" transform="translate(251 -55)" fill="#277da1" stroke="#277da1" stroke-width="1">
      <rect width="5" height="6" stroke="none"/>
      <rect x="0.5" y="0.5" width="4" height="5" fill="none"/>
    </g>
    <g id="Rectangle_13" data-name="Rectangle 13" transform="translate(180 -75)" fill="#277da1" stroke="#277da1" stroke-width="1">
      <rect width="6" height="6" stroke="none"/>
      <rect x="0.5" y="0.5" width="5" height="5" fill="none"/>
    </g>
    <g id="Rectangle_47" data-name="Rectangle 47" transform="translate(251 -44)" fill="#277da1" stroke="#277da1" stroke-width="1">
      <rect width="5" height="6" stroke="none"/>
      <rect x="0.5" y="0.5" width="4" height="5" fill="none"/>
    </g>
    <g id="Rectangle_16" data-name="Rectangle 16" transform="translate(180 -64)" fill="#277da1" stroke="#277da1" stroke-width="1">
      <rect width="6" height="6" stroke="none"/>
      <rect x="0.5" y="0.5" width="5" height="5" fill="none"/>
    </g>
    <g id="Rectangle_38" data-name="Rectangle 38" transform="translate(251 -33)" fill="#277da1" stroke="#277da1" stroke-width="1">
      <rect width="5" height="5" stroke="none"/>
      <rect x="0.5" y="0.5" width="4" height="4" fill="none"/>
    </g>
    <g id="Rectangle_8" data-name="Rectangle 8" transform="translate(191 -96)" fill="#277da1" stroke="#277da1" stroke-width="1">
      <rect width="6" height="5" stroke="none"/>
      <rect x="0.5" y="0.5" width="5" height="4" fill="none"/>
    </g>
    <g id="Rectangle_40" data-name="Rectangle 40" transform="translate(262 -66)" fill="#277da1" stroke="#277da1" stroke-width="1">
      <rect width="5" height="6" stroke="none"/>
      <rect x="0.5" y="0.5" width="4" height="5" fill="none"/>
    </g>
    <g id="Rectangle_24" data-name="Rectangle 24" transform="translate(225 -172)" fill="#277da1" stroke="#277da1" stroke-width="1">
      <rect width="6" height="5" stroke="none"/>
      <rect x="0.5" y="0.5" width="5" height="4" fill="none"/>
    </g>
    <g id="Rectangle_11" data-name="Rectangle 11" transform="translate(191 -85)" fill="#277da1" stroke="#277da1" stroke-width="1">
      <rect width="6" height="5" stroke="none"/>
      <rect x="0.5" y="0.5" width="5" height="4" fill="none"/>
    </g>
    <g id="Rectangle_45" data-name="Rectangle 45" transform="translate(262 -55)" fill="#277da1" stroke="#277da1" stroke-width="1">
      <rect width="5" height="6" stroke="none"/>
      <rect x="0.5" y="0.5" width="4" height="5" fill="none"/>
    </g>
    <g id="Rectangle_25" data-name="Rectangle 25" transform="translate(225 -161)" fill="#277da1" stroke="#277da1" stroke-width="1">
      <rect width="6" height="5" stroke="none"/>
      <rect x="0.5" y="0.5" width="5" height="4" fill="none"/>
    </g>
    <g id="Rectangle_14" data-name="Rectangle 14" transform="translate(191 -75)" fill="#277da1" stroke="#277da1" stroke-width="1">
      <rect width="6" height="6" stroke="none"/>
      <rect x="0.5" y="0.5" width="5" height="5" fill="none"/>
    </g>
    <g id="Rectangle_48" data-name="Rectangle 48" transform="translate(262 -44)" fill="#277da1" stroke="#277da1" stroke-width="1">
      <rect width="5" height="6" stroke="none"/>
      <rect x="0.5" y="0.5" width="4" height="5" fill="none"/>
    </g>
    <g id="Rectangle_17" data-name="Rectangle 17" transform="translate(191 -64)" fill="#277da1" stroke="#277da1" stroke-width="1">
      <rect width="6" height="6" stroke="none"/>
      <rect x="0.5" y="0.5" width="5" height="5" fill="none"/>
    </g>
    <g id="Rectangle_39" data-name="Rectangle 39" transform="translate(262 -33)" fill="#277da1" stroke="#277da1" stroke-width="1">
      <rect width="5" height="5" stroke="none"/>
      <rect x="0.5" y="0.5" width="4" height="4" fill="none"/>
    </g>
  </g>
</svg>
