<svg xmlns="http://www.w3.org/2000/svg" width="89" height="65" viewBox="0 0 89 65">
  <g id="_logo" transform="translate(-101 199)">
    <rect id="Rectangle_2" data-name="Rectangle 2" width="26" height="1" transform="translate(101 -135)" fill="#277da1"/>
    <rect id="Rectangle_49" data-name="Rectangle 49" width="27" height="1" transform="translate(145 -135)" fill="#277da1"/>
    <rect id="Rectangle_5" data-name="Rectangle 5" width="24" height="2" transform="translate(113 -170) rotate(90)" fill="#277da1"/>
    <rect id="Rectangle_18" data-name="Rectangle 18" width="17" height="1" transform="translate(123 -192) rotate(90)" fill="#277da1"/>
    <rect id="Rectangle_36" data-name="Rectangle 36" width="18" height="1" transform="translate(134 -161) rotate(90)" fill="#277da1"/>
    <rect id="Rectangle_19" data-name="Rectangle 19" width="14.467" height="1.607" transform="translate(122.067 -192.584) rotate(-26)" fill="#277da1"/>
    <rect id="Rectangle_35" data-name="Rectangle 35" width="14.467" height="1.607" transform="translate(132.783 -160.971) rotate(-26)" fill="#277da1"/>
    <rect id="Rectangle_4" data-name="Rectangle 4" width="16" height="2" transform="translate(111 -172)" fill="#277da1"/>
    <rect id="Rectangle_3" data-name="Rectangle 3" width="37" height="2" transform="translate(127 -172) rotate(90)" fill="#277da1"/>
    <rect id="Rectangle_20" data-name="Rectangle 20" width="37" height="2" transform="translate(137 -199) rotate(90)" fill="#277da1"/>
    <rect id="Rectangle_34" data-name="Rectangle 34" width="34" height="2" transform="translate(147 -168) rotate(90)" fill="#277da1"/>
    <g id="Rectangle_6" data-name="Rectangle 6" transform="translate(115 -168)" fill="#277da1" stroke="#277da1" stroke-width="1">
      <rect width="2" height="1" stroke="none"/>
      <rect x="0.5" y="0.5" width="1" fill="none"/>
    </g>
    <g id="Rectangle_42" data-name="Rectangle 42" transform="translate(136 -159)" fill="#277da1" stroke="#277da1" stroke-width="1">
      <rect width="1" height="1" stroke="none"/>
      <rect x="0.5" y="0.5" fill="none"/>
    </g>
    <g id="Rectangle_21" data-name="Rectangle 21" transform="translate(125 -191)" fill="#277da1" stroke="#277da1" stroke-width="1">
      <rect width="2" height="2" stroke="none"/>
      <rect x="0.5" y="0.5" width="1" height="1" fill="none"/>
    </g>
    <g id="Rectangle_9" data-name="Rectangle 9" transform="translate(115 -165)" fill="#277da1" stroke="#277da1" stroke-width="1">
      <rect width="2" height="1" stroke="none"/>
      <rect x="0.5" y="0.5" width="1" fill="none"/>
    </g>
    <g id="Rectangle_43" data-name="Rectangle 43" transform="translate(136 -156)" fill="#277da1" stroke="#277da1" stroke-width="1">
      <rect width="1" height="2" stroke="none"/>
      <rect x="0.5" y="0.5" height="1" fill="none"/>
    </g>
    <g id="Rectangle_22" data-name="Rectangle 22" transform="translate(125 -188)" fill="#277da1" stroke="#277da1" stroke-width="1">
      <rect width="2" height="2" stroke="none"/>
      <rect x="0.5" y="0.5" width="1" height="1" fill="none"/>
    </g>
    <g id="Rectangle_28" data-name="Rectangle 28" transform="translate(129 -188)" fill="#277da1" stroke="#277da1" stroke-width="1">
      <rect width="1" height="2" stroke="none"/>
      <rect x="0.5" y="0.5" height="1" fill="none"/>
    </g>
    <g id="Rectangle_12" data-name="Rectangle 12" transform="translate(115 -162)" fill="#277da1" stroke="#277da1" stroke-width="1">
      <rect width="2" height="2" stroke="none"/>
      <rect x="0.5" y="0.5" width="1" height="1" fill="none"/>
    </g>
    <g id="Rectangle_46" data-name="Rectangle 46" transform="translate(136 -153)" fill="#277da1" stroke="#277da1" stroke-width="1">
      <rect width="1" height="2" stroke="none"/>
      <rect x="0.5" y="0.5" height="1" fill="none"/>
    </g>
    <g id="Rectangle_26" data-name="Rectangle 26" transform="translate(125 -184)" fill="#277da1" stroke="#277da1" stroke-width="1">
      <rect width="2" height="1" stroke="none"/>
      <rect x="0.5" y="0.5" width="1" fill="none"/>
    </g>
    <g id="Rectangle_32" data-name="Rectangle 32" transform="translate(125 -181)" fill="#277da1" stroke="#277da1" stroke-width="1">
      <rect width="2" height="1" stroke="none"/>
      <rect x="0.5" y="0.5" width="1" fill="none"/>
    </g>
    <g id="Rectangle_29" data-name="Rectangle 29" transform="translate(129 -184)" fill="#277da1" stroke="#277da1" stroke-width="1">
      <rect width="1" height="1" stroke="none"/>
      <rect x="0.5" y="0.5" fill="none"/>
    </g>
    <g id="Rectangle_31" data-name="Rectangle 31" transform="translate(129 -181)" fill="#277da1" stroke="#277da1" stroke-width="1">
      <rect width="1" height="1" stroke="none"/>
      <rect x="0.5" y="0.5" fill="none"/>
    </g>
    <g id="Rectangle_30" data-name="Rectangle 30" transform="translate(132 -184)" fill="#277da1" stroke="#277da1" stroke-width="1">
      <rect width="1" height="1" stroke="none"/>
      <rect x="0.5" y="0.5" fill="none"/>
    </g>
    <g id="Rectangle_33" data-name="Rectangle 33" transform="translate(132 -181)" fill="#277da1" stroke="#277da1" stroke-width="1">
      <rect width="1" height="1" stroke="none"/>
      <rect x="0.5" y="0.5" fill="none"/>
    </g>
    <g id="Rectangle_15" data-name="Rectangle 15" transform="translate(115 -159)" fill="#277da1" stroke="#277da1" stroke-width="1">
      <rect width="2" height="2" stroke="none"/>
      <rect x="0.5" y="0.5" width="1" height="1" fill="none"/>
    </g>
    <g id="Rectangle_37" data-name="Rectangle 37" transform="translate(136 -150)" fill="#277da1" stroke="#277da1" stroke-width="1">
      <rect width="1" height="2" stroke="none"/>
      <rect x="0.5" y="0.5" height="1" fill="none"/>
    </g>
    <g id="Rectangle_7" data-name="Rectangle 7" transform="translate(118 -168)" fill="#277da1" stroke="#277da1" stroke-width="1">
      <rect width="2" height="1" stroke="none"/>
      <rect x="0.5" y="0.5" width="1" fill="none"/>
    </g>
    <g id="Rectangle_41" data-name="Rectangle 41" transform="translate(139 -159)" fill="#277da1" stroke="#277da1" stroke-width="1">
      <rect width="2" height="1" stroke="none"/>
      <rect x="0.5" y="0.5" width="1" fill="none"/>
    </g>
    <g id="Rectangle_23" data-name="Rectangle 23" transform="translate(129 -191)" fill="#277da1" stroke="#277da1" stroke-width="1">
      <rect width="1" height="2" stroke="none"/>
      <rect x="0.5" y="0.5" height="1" fill="none"/>
    </g>
    <g id="Rectangle_10" data-name="Rectangle 10" transform="translate(118 -165)" fill="#277da1" stroke="#277da1" stroke-width="1">
      <rect width="2" height="1" stroke="none"/>
      <rect x="0.5" y="0.5" width="1" fill="none"/>
    </g>
    <g id="Rectangle_44" data-name="Rectangle 44" transform="translate(139 -156)" fill="#277da1" stroke="#277da1" stroke-width="1">
      <rect width="2" height="2" stroke="none"/>
      <rect x="0.5" y="0.5" width="1" height="1" fill="none"/>
    </g>
    <g id="Rectangle_13" data-name="Rectangle 13" transform="translate(118 -162)" fill="#277da1" stroke="#277da1" stroke-width="1">
      <rect width="2" height="2" stroke="none"/>
      <rect x="0.5" y="0.5" width="1" height="1" fill="none"/>
    </g>
    <g id="Rectangle_47" data-name="Rectangle 47" transform="translate(139 -153)" fill="#277da1" stroke="#277da1" stroke-width="1">
      <rect width="2" height="2" stroke="none"/>
      <rect x="0.5" y="0.5" width="1" height="1" fill="none"/>
    </g>
    <g id="Rectangle_16" data-name="Rectangle 16" transform="translate(118 -159)" fill="#277da1" stroke="#277da1" stroke-width="1">
      <rect width="2" height="2" stroke="none"/>
      <rect x="0.5" y="0.5" width="1" height="1" fill="none"/>
    </g>
    <g id="Rectangle_38" data-name="Rectangle 38" transform="translate(139 -150)" fill="#277da1" stroke="#277da1" stroke-width="1">
      <rect width="2" height="2" stroke="none"/>
      <rect x="0.5" y="0.5" width="1" height="1" fill="none"/>
    </g>
    <g id="Rectangle_8" data-name="Rectangle 8" transform="translate(121 -168)" fill="#277da1" stroke="#277da1" stroke-width="1">
      <rect width="2" height="1" stroke="none"/>
      <rect x="0.5" y="0.5" width="1" fill="none"/>
    </g>
    <g id="Rectangle_40" data-name="Rectangle 40" transform="translate(142 -159)" fill="#277da1" stroke="#277da1" stroke-width="1">
      <rect width="2" height="1" stroke="none"/>
      <rect x="0.5" y="0.5" width="1" fill="none"/>
    </g>
    <g id="Rectangle_24" data-name="Rectangle 24" transform="translate(132 -191)" fill="#277da1" stroke="#277da1" stroke-width="1">
      <rect width="1" height="2" stroke="none"/>
      <rect x="0.5" y="0.5" height="1" fill="none"/>
    </g>
    <g id="Rectangle_11" data-name="Rectangle 11" transform="translate(121 -165)" fill="#277da1" stroke="#277da1" stroke-width="1">
      <rect width="2" height="1" stroke="none"/>
      <rect x="0.5" y="0.5" width="1" fill="none"/>
    </g>
    <g id="Rectangle_45" data-name="Rectangle 45" transform="translate(142 -156)" fill="#277da1" stroke="#277da1" stroke-width="1">
      <rect width="2" height="2" stroke="none"/>
      <rect x="0.5" y="0.5" width="1" height="1" fill="none"/>
    </g>
    <g id="Rectangle_25" data-name="Rectangle 25" transform="translate(132 -188)" fill="#277da1" stroke="#277da1" stroke-width="1">
      <rect width="1" height="2" stroke="none"/>
      <rect x="0.5" y="0.5" height="1" fill="none"/>
    </g>
    <g id="Rectangle_14" data-name="Rectangle 14" transform="translate(121 -162)" fill="#277da1" stroke="#277da1" stroke-width="1">
      <rect width="2" height="2" stroke="none"/>
      <rect x="0.5" y="0.5" width="1" height="1" fill="none"/>
    </g>
    <g id="Rectangle_48" data-name="Rectangle 48" transform="translate(142 -153)" fill="#277da1" stroke="#277da1" stroke-width="1">
      <rect width="2" height="2" stroke="none"/>
      <rect x="0.5" y="0.5" width="1" height="1" fill="none"/>
    </g>
    <g id="Rectangle_17" data-name="Rectangle 17" transform="translate(121 -159)" fill="#277da1" stroke="#277da1" stroke-width="1">
      <rect width="2" height="2" stroke="none"/>
      <rect x="0.5" y="0.5" width="1" height="1" fill="none"/>
    </g>
    <g id="Rectangle_39" data-name="Rectangle 39" transform="translate(142 -150)" fill="#277da1" stroke="#277da1" stroke-width="1">
      <rect width="2" height="2" stroke="none"/>
      <rect x="0.5" y="0.5" width="1" height="1" fill="none"/>
    </g>
    <text id="Ma_cité" data-name="Ma cité" transform="translate(152 -155)" fill="#1d3557" font-size="10" font-family="Montserrat-Bold, Montserrat" font-weight="700"><tspan x="0" y="0">Ma cité</tspan></text>
  </g>
</svg>
